<svg id="Layer_1" data-name="Layer 1" xmlns="http://www.w3.org/2000/svg" xmlns:xlink="http://www.w3.org/1999/xlink" viewBox="0 0 1080 1080"><defs><style>.cls-1{fill:url(#linear-gradient);}.cls-2{fill:lime;}.cls-3{fill:#fff;}.cls-4{fill:#00c949;}.cls-5{fill:#009f28;}</style><linearGradient id="linear-gradient" x1="-0.33" y1="540.3" x2="1079.67" y2="540.3" gradientUnits="userSpaceOnUse"><stop offset="0" stop-color="#102424"/><stop offset="1" stop-color="#107136"/></linearGradient></defs><title>lime_monitor_app_icon</title><rect class="cls-1" x="-0.33" y="0.3" width="1080" height="1080" rx="200"/><path class="cls-2" d="M435.33,569.11l-156.15,92c-18.18,10.7-41.3,1.48-47.75-18.9a338.77,338.77,0,0,1,.11-204.6,32.6,32.6,0,0,1,47.64-18.5l156.15,92C457.24,524,457.24,556.21,435.33,569.11Z"/><path class="cls-2" d="M299.76,317.55A328.29,328.29,0,0,1,376,254.18a319.62,319.62,0,0,1,96.87-38.38c20.38-4.42,39.54,11.58,39.54,32.83V431.81c0,25.8-27.38,41.93-49.29,29L307.57,369.23C289.37,358.51,285.65,333.44,299.76,317.55Z"/><path class="cls-2" d="M512.41,648.36V831.5c0,21.25-19.16,37.24-39.54,32.82A319.28,319.28,0,0,1,376,826a327.85,327.85,0,0,1-76.22-63.35c-14.11-15.88-10.4-41,7.8-51.68l155.53-91.6C485,606.42,512.41,622.55,512.41,648.36Z"/><circle class="cls-2" cx="540.67" cy="541.3" r="50"/><path class="cls-2" d="M781.91,762.21a328.16,328.16,0,0,1-76.39,63.63,319.6,319.6,0,0,1-97,38.49c-20.38,4.41-39.55-11.58-39.55-32.83V647.8c0-25.81,27.39-41.94,49.3-29l155.85,91.79C792.27,721.27,796,746.31,781.91,762.21Z"/><path class="cls-2" d="M568.93,432.37V248.63c0-21.26,19.17-37.25,39.55-32.83a319.81,319.81,0,0,1,97.06,38.49A328.5,328.5,0,0,1,781.94,318c14.07,15.89,10.35,40.93-7.83,51.64L618.23,461.4C596.32,474.3,568.93,458.17,568.93,432.37Z"/><path class="cls-2" d="M539.35,96.6c-245.22,0-444,198.79-444,444s198.78,444,444,444,444-198.79,444-444S784.56,96.6,539.35,96.6Zm.34,825c-210.6,0-381.32-170.72-381.32-381.31S329.09,159,539.69,159,921,329.69,921,540.29,750.28,921.6,539.69,921.6Z"/><path class="cls-2" d="M865.67,540.06a338.47,338.47,0,0,1-15.72,102,32.59,32.59,0,0,1-47.64,18.53L647,569.11c-21.91-12.9-21.91-45.16,0-58.06l155.36-91.5A32.6,32.6,0,0,1,850,438.08,338.87,338.87,0,0,1,865.67,540.06Z"/><path class="cls-3" d="M435.33,569.11l-156.15,92c-18.18,10.7-41.3,1.48-47.75-18.9a338.77,338.77,0,0,1,.11-204.6,32.6,32.6,0,0,1,47.64-18.5l156.15,92C457.24,524,457.24,556.21,435.33,569.11Z"/><path class="cls-3" d="M299.76,317.55A328.29,328.29,0,0,1,376,254.18a319.62,319.62,0,0,1,96.87-38.38c20.38-4.42,39.54,11.58,39.54,32.83V431.81c0,25.8-27.38,41.93-49.29,29L307.57,369.23C289.37,358.51,285.65,333.44,299.76,317.55Z"/><path class="cls-3" d="M512.41,648.36V831.5c0,21.25-19.16,37.24-39.54,32.82A319.28,319.28,0,0,1,376,826a327.85,327.85,0,0,1-76.22-63.35c-14.11-15.88-10.4-41,7.8-51.68l155.53-91.6C485,606.42,512.41,622.55,512.41,648.36Z"/><circle class="cls-3" cx="540.67" cy="541.3" r="50"/><path class="cls-3" d="M781.91,762.21a328.16,328.16,0,0,1-76.39,63.63,319.6,319.6,0,0,1-97,38.49c-20.38,4.41-39.55-11.58-39.55-32.83V647.8c0-25.81,27.39-41.94,49.3-29l155.85,91.79C792.27,721.27,796,746.31,781.91,762.21Z"/><path class="cls-3" d="M568.93,432.37V248.63c0-21.26,19.17-37.25,39.55-32.83a319.81,319.81,0,0,1,97.06,38.49A328.5,328.5,0,0,1,781.94,318c14.07,15.89,10.35,40.93-7.83,51.64L618.23,461.4C596.32,474.3,568.93,458.17,568.93,432.37Z"/><path class="cls-3" d="M865.67,540.06a338.47,338.47,0,0,1-15.72,102,32.59,32.59,0,0,1-47.64,18.53L647,569.11c-21.91-12.9-21.91-45.16,0-58.06l155.36-91.5A32.6,32.6,0,0,1,850,438.08,338.87,338.87,0,0,1,865.67,540.06Z"/><polygon class="cls-4" points="539.67 540.99 540.12 540.73 539.67 540.47 539.67 540.99"/><circle class="cls-2" cx="540.67" cy="541.3" r="50"/><polygon class="cls-3" points="540.67 540.36 541.15 540.09 540.67 539.81 540.67 540.36"/><path class="cls-3" d="M512.41,248.63V431.81c0,25.8-27.38,41.93-49.29,29L307.57,369.23c-18.2-10.72-21.92-35.79-7.81-51.68A328.29,328.29,0,0,1,376,254.18a319.62,319.62,0,0,1,96.87-38.38C493.25,211.38,512.41,227.38,512.41,248.63Z"/><path class="cls-3" d="M865.67,540.06a338.47,338.47,0,0,1-15.72,102,32.59,32.59,0,0,1-47.64,18.53L647,569.11c-21.91-12.9-21.91-45.16,0-58.06l155.36-91.5A32.6,32.6,0,0,1,850,438.08,338.87,338.87,0,0,1,865.67,540.06Z"/><path class="cls-3" d="M774.11,369.59,618.23,461.4c-21.91,12.9-49.3-3.23-49.3-29V248.63c0-21.26,19.17-37.25,39.55-32.83a319.81,319.81,0,0,1,97.06,38.49A328.5,328.5,0,0,1,781.94,318C796,333.84,792.29,358.88,774.11,369.59Z"/><path class="cls-3" d="M781.91,762.21a328.16,328.16,0,0,1-76.39,63.63,319.6,319.6,0,0,1-97,38.49c-20.38,4.41-39.55-11.58-39.55-32.83V647.8c0-25.81,27.39-41.94,49.3-29l155.85,91.79C792.27,721.27,796,746.31,781.91,762.21Z"/><path class="cls-3" d="M512.41,648.36V831.5c0,21.25-19.16,37.24-39.54,32.82A319.28,319.28,0,0,1,376,826a327.85,327.85,0,0,1-76.22-63.35c-14.11-15.88-10.4-41,7.8-51.68l155.53-91.6C485,606.42,512.41,622.55,512.41,648.36Z"/><path class="cls-3" d="M435.33,569.11l-156.15,92c-18.18,10.7-41.3,1.48-47.75-18.9a338.77,338.77,0,0,1,.11-204.6,32.6,32.6,0,0,1,47.64-18.5l156.15,92C457.24,524,457.24,556.21,435.33,569.11Z"/><path class="cls-5" d="M647,347a1.5,1.5,0,0,0,0-3,1.5,1.5,0,0,0,0,3Z"/></svg>